/* XPM */
static char *d6455548bd884c6cb7cb051a7debf4b0964Z4mAvfOR9lKtm[] = {
/* columns rows colors chars-per-pixel */
"64 64 69 1 ",
"  c #C3BEB5",
". c #C4C1BC",
"X c #C5C5C2",
"o c #CAC7C2",
"O c #C6C8C7",
"+ c #CCCAC6",
"@ c #C4C7C8",
"# c #C6C9CA",
"$ c #CCCDCC",
"% c #D1CFCB",
"& c #CED0CF",
"* c #D2D1CE",
"= c #CDCFD0",
"- c #CED1D1",
"; c #D4D5D4",
": c #D8D7D5",
"> c #D6D8D7",
", c #D9D9D7",
"< c #D5D7D8",
"1 c #D7D9D9",
"2 c #DBDCDC",
"3 c #E0DFDF",
"4 c #DFE0DF",
"5 c #E0E0DF",
"6 c #DDDFE0",
"7 c #E0DFE0",
"8 c #DFE0E1",
"9 c #E3E3E2",
"0 c #E2E3E3",
"q c #E1E4E3",
"w c #E2E4E2",
"e c #E4E4E3",
"r c #E3E3E4",
"t c #E2E4E4",
"y c #E3E6E5",
"u c #E4E4E4",
"i c #E4E6E5",
"p c #E5E6E5",
"a c #E4E4E7",
"s c #E6E6E7",
"d c #E6E8E7",
"f c #E3E5E8",
"g c #E3E6E8",
"h c #E5E7E8",
"j c #E7E7E8",
"k c #E7E7EA",
"l c #E7E8E8",
"z c #E6E9E8",
"x c #E6E9E9",
"c c #E5E8EB",
"v c #E7EAEC",
"b c #E9E9EA",
"n c #E9EAEA",
"m c #E8EAEB",
"M c #E9EBEB",
"N c #E9EBEC",
"B c #EAEAEC",
"V c #EAEBEC",
"C c #E8EBEE",
"Z c #E8ECEC",
"A c #EBEDEE",
"S c #EBEDF0",
"D c #ECEDF0",
"F c #EDEEF0",
"G c #ECEFF1",
"H c #ECF0F2",
"J c #ECF1F3",
"K c #EEF0F2",
"L c #F0F1F3",
/* pixels */
"ttxtfxxxvxxxttptpphMhtp0hNuuhhrrh66rhhhGhru726uu6722820vvh6HJZJJ",
"24tptxx22xdttxNw2300hhMhNhhpujhrr77u6rkhGN7u00002;22th6r608xtfxJ",
"2wxtNxhp80twrp00032222pprr6uuNNGhr62r2rkGvNhMNh2;222;0r0;,6+O262",
"tZZx0rrp048t2rxhu:02:2;,rNhrauuuGNhh626ahNNh6p00pp2;22686;112828",
"xp442MZxxMepd00MhMtpMhu70rhhNDjNxNNNphNj00rpurhh0;26rphrZfrvhvxt",
"ptZvddZGNp03400p0MMeprhu027Nh07uh77NGhNrrrthr722p,2p22trtfffx2f8",
"httptwtZN2NGNZM0p353,,7r0phNh72:636hr7222rhSNr772uM02,221122221<",
"t02ptdtxNNNMLZt000e30e77hNjuuhp72urrhp7u0rarrahhhhr222628882ff2;",
"4wM0eAAjNhppr623e7pMhMhN07e27pjGGNjMhhNahurhu7huNNhpp266228f;+OX",
"w0w2ejjhNu2622eppeuurjBGp3hNj7uuNuuhjjjhkBhhjjruu7rpu266288;X..$",
"x0522222upxp0hpeehujNpphNjr0rrhuhDNNGkDGu6huuNNj72772hhhf8;$*222",
"xpMMe5220pphppNGMhjur2hjjGh6rpNj0uNLNkakGN7jj222uhhuNhhGZ1;$;;28",
"5e0p0eMMuueuhp7:eMNpjNDNjkjhhj727hu72727uhh7u227hvhNh22:;;2122tt",
"MdxdNNMhpe7jGMpuejMkDkaaukhhjajuujj7ph2,27h72r27arahr22226682888",
"xpNMGN2rGGNjhuuphu2puhDk77hjjjNh0uaupuuuu77uuhhur227r2<7Nhf66;28",
"0dZd,2rrNpNj0euMN27r7phkku7uu72uuuu6hNhuu72uhNjur777rrrhNLGt2ttp",
"xMxZ53MMuphppNM20hjuBGjjh6uhrr7urr7uNjrrurrpN0eerhNr0hNr6hvfrvNN",
"MptxLLx,7ruuprupMABuNjkjraphhhhturrr:%22rpNMhNMp6r,;263r62aGGGGv",
"000dMMN0phpur77pNMpNkhjkarrruhhhhhjj77uhuh0u02,5220,2rrpr7hNJGGf",
"023wtpMNhhju22ujhjNNjh72rhhr7r7pNNhNpruhr773225576upfrr222ru6<22",
"twpe0pwxNNheujuuujGDNu22uu7rh777uNNhjjr6r6,65::277pur06:;,1,,;;2",
"wtw0d00phMhhuhhuukahhjDNNNrrpuNju77hjhh76r7a5ee22722222r771-22<2",
"0w0030t0730pjMNNjruuhNNkhkDhjjNGr2722hhhrrNr553nppr2;;:,22262,<:",
"58500e022320hNh77pjahhaau7hjaNNp2727200rpp72e325r2;;::,21,,222<;",
"wwwx04400020peNp7pur020rrrrpjN3;227up722,,335Vn50,23222226,2,11,",
"0dddwwww000phxhGh72u077u0rr0u3::2222722322,,,:5M2rw2222222222,11",
"tMt5500wptMptppphu7r07776rr2222e2:::223225,,::35522,,,2226622222",
"xp25we00ppMt000wphNhr20726rr7322272233333352,:%%:*:7227677666622",
"ww82242383440055uhp70u70prrptu3euhu707hp05523,*+*:,377727762,112",
",0wr542232,00405Nh07707rrtrpjhGMNMjjp0uue02553550p5277622;;;;;<;",
",0Mx02400425200xh00hNupurpr02:2pujDGNh7u3505325532,:;271-:<:;;;;",
",22e444420055420770phhhhprp02:,,3uujGGM70e52222222:*;:;2762,<,1,",
"2,2w0082220220w03ue2rhuu00rr0033223:7MGj55555222::2:,,:*;:;,,<,;",
"4225w4ww52200pw8r0326par0e0ue0337u32;%3M52::2222:,:22,,;$;;;<;;;",
":,2,r8wt0035024wp;%3rrur0007730euuu3,::035322552,:22;*;;:;22,;;-",
"44,;1t0p050223wd0;:27760730732,2722rp3::3ep0552;;22;;1:::22;,;;;",
"5555225w0r025w550MMp77r00027772:*33;;::35353,;*;,2::;;;;;<211121",
"5555,,25ww00p54,,eppuppr20723e023%**%%+%55:*;,,1::,%*:;;;;;<,2<<",
"55t552:,200pdpppNprhj72r02762,,3%%%,:%+ o,:222,,;;:;*:22,<,<<1;<",
"455pw5420ext455470MNhNhrphr07up::*%.*:*%++o+::*;;:;*;:;;<<,1,,<;",
"44444444tt2,,,55:::,7ppephtph,;;***. *3,;+*%+;:>,;%;;<<<,,,,;;:;",
"4444;4yyw455,,,,,::,23232327;;%;*;;;. .3*:::*>22:%;:;::21,2<<<<;",
"44544ZZ44,:2422,,:,;**,:;;;%%**%**:**o  *::,21>2:%%-:<;<112<;;;;",
"4dZZZy4442>>,42;,,:;,;**%%%%;;%;:;::***. **:8>::;2:::22<;;<=;;;-",
"y444444>444222222,;;,,;;:;;%*;;%%**::;;*%+;:::1::,,:<262,;;;;<<;",
"44444444222222,2,2::,***;;;;,:;;:22,::;;**::*>>,,;,,2<<:1<<;;;;;",
"4;4*;;>4224222223222,*,:%%$%;;2;::%*:,;;:::,,*;:<,,221<<<<<;==-$",
";>;4**;;22448222;;*;**+,0:*+o$%$.o%;:,2;;*;::;&*,2,1,;;;;;=$%;;+",
",4;>>>*>>444>*>*#&>;&;*%%4:+X..+*%;;,221222222;;;::-%-:;$=;=;;-=",
"4>4>>;4>>4w,>4>4444>>>**..%,:;;;;;;212112112,<12;;<%;-;<;;;<;=-;",
";44>44www>>44>>>&;;4>>,>*...$>28620682;1122222;22;;;:<;<<;;-;===",
"4>>4w>>>>>>>>>*>4<&&>>>>44452611008882612222126;<:;;;<<<<<;;;;;=",
"&>44>>;>4442>>>>;<<---1;,42<>22;;226226622161122122<<<<<<<6<<;;-",
"4>>>4;;>>-1444>;<44484444,142168666211122222111212<<<<<<<<<<<;-<",
";>>>&;;&&--22>>44<<<>114>>141488r866888888f8811111<<<<<<<<<<<-;-",
";>>;;>>;&-&>2>4>1>>4141<142142211<26tff8fff2<16676<<<<<;=6<<-<<-",
">->>>>>-;&->4w114<<<4<14<66<6<<61211218fx81;2211<<<<<<--<-<-<<-<",
">>>>>>>>>>>;-284884<411<22<6<66<622666661-$&-<;;<<--<<<<<<<<---=",
">>>>>>>;;;>;#&18<<11144881<<<<<6116688<;;-$$$$;;-<<=-6666<<-<<==",
">>>&-->-;;;41>>1411<<1<<11<<<<<<<11<1<<;;11<--;;<<<-===<-===###=",
">>->>->;;;&$>->1<14<<<<6666<6<<<<<11611<;;<;-&$##=#-===#########",
">-->>;->&-&>&&#>1488888811<-<<<<166611;-;;;-;-$X###-===@=#######",
"-----&&;;&-->-&&-<;;--<181-<#<<6666;;$+=$&;;---$#$-&@@@@########",
"------&&&&#&&---&#=-<<<16---=<66-<=$#$;--==--;--;---#@@=########"
};
