/* XPM */
static char *_ac7fdfdb4a648aa9b2b32bd653996e0fqWq87k0OTvddFgk[] = {
/* columns rows colors chars-per-pixel */
"64 64 187 2 ",
"   c #4D4031",
".  c #574739",
"X  c #5C4C3D",
"o  c #684F31",
"O  c #67533C",
"+  c #6C543B",
"@  c #6E583F",
"#  c #705436",
"$  c #735538",
"%  c #755A3E",
"&  c #7B5C3C",
"*  c #655543",
"=  c #6A5643",
"-  c #6B5944",
";  c #6D5C4B",
":  c #735C44",
">  c #795F42",
",  c #715F4C",
"<  c #776046",
"1  c #7C6245",
"2  c #74614C",
"3  c #7B644B",
"4  c #7E684D",
"5  c #766453",
"6  c #7A6653",
"7  c #7D6A54",
"8  c #7E6C58",
"9  c #87613F",
"0  c #836445",
"q  c #856946",
"w  c #82664B",
"e  c #836A4C",
"r  c #8C6D4C",
"t  c #906E4D",
"y  c #8D714F",
"u  c #93744C",
"i  c #9B754E",
"p  c #836D54",
"a  c #8B6D51",
"s  c #826E59",
"d  c #847157",
"f  c #8C7254",
"g  c #85725A",
"h  c #8A745B",
"j  c #8F7A5E",
"k  c #927453",
"l  c #9A7655",
"z  c #917956",
"x  c #9C7B55",
"c  c #937658",
"v  c #957A5C",
"b  c #9C7C5A",
"n  c #A57D4E",
"m  c #B27F47",
"M  c #A27D54",
"N  c #A37E5A",
"B  c #A87F59",
"V  c #897561",
"C  c #8E7A62",
"Z  c #947D60",
"A  c #9A7F62",
"S  c #9D815E",
"D  c #BA8247",
"F  c #BC844B",
"G  c #BB884F",
"H  c #A58256",
"J  c #AC8455",
"K  c #A4825C",
"L  c #AA855C",
"P  c #AD895E",
"I  c #B38656",
"U  c #B28957",
"Y  c #BC8C54",
"T  c #B08758",
"R  c #B28B5D",
"E  c #BB8E5B",
"W  c #BD915D",
"Q  c #978061",
"!  c #9C8364",
"~  c #9D8969",
"^  c #A48562",
"/  c #AC8762",
"(  c #A58965",
")  c #AC8B64",
"_  c #A2866A",
"`  c #A48A6C",
"'  c #AB8E6B",
"]  c #B28D63",
"[  c #B88F66",
"{  c #B38F68",
"}  c #AE916D",
"|  c #B59165",
" . c #BB9365",
".. c #B4936C",
"X. c #BA966B",
"o. c #BD996D",
"O. c #A68D71",
"+. c #A98F72",
"@. c #AD9273",
"#. c #AF9579",
"$. c #B39573",
"%. c #BA9771",
"&. c #B69975",
"*. c #BB9B74",
"=. c #B2977A",
"-. c #B59A7B",
";. c #BB9D7B",
":. c #BEA17D",
">. c #C18D52",
",. c #C49155",
"<. c #C89656",
"1. c #C3945C",
"2. c #C9965B",
"3. c #CD995E",
"4. c #C29663",
"5. c #C49965",
"6. c #CB9C63",
"7. c #C2976A",
"8. c #C39B6C",
"9. c #CA9E6B",
"0. c #D19E64",
"q. c #C29E73",
"w. c #C99F72",
"e. c #C19F7A",
"r. c #C6A16F",
"t. c #CCA16D",
"y. c #D3A164",
"u. c #D8A467",
"i. c #D2A36D",
"p. c #D8AA6B",
"a. c #C5A175",
"s. c #CBA374",
"d. c #CDA876",
"f. c #C4A37B",
"g. c #C1A37E",
"h. c #CAA57B",
"j. c #CCA77B",
"k. c #C7A87E",
"l. c #CFA979",
"z. c #CDA97D",
"x. c #D2A573",
"c. c #D4A974",
"v. c #D5AA76",
"b. c #D9AC75",
"n. c #D1A67A",
"m. c #D0AA7A",
"M. c #D3AB7B",
"N. c #D6AD79",
"B. c #D7AF7E",
"V. c #D9AD7B",
"C. c #D6B07D",
"Z. c #D9B17F",
"A. c #DCB17D",
"S. c #B79D81",
"D. c #B99E81",
"F. c #BDA282",
"G. c #C3A583",
"H. c #CBA780",
"J. c #C6A985",
"K. c #CCAB83",
"L. c #C3A688",
"P. c #C6AA89",
"I. c #CBAD8A",
"U. c #D2AE83",
"Y. c #D8AF80",
"T. c #D1AF8A",
"R. c #CEB08C",
"E. c #D6B182",
"W. c #D4B185",
"Q. c #D9B180",
"!. c #DBB383",
"~. c #D3B38C",
"^. c #D9B68B",
"/. c #DCB98D",
"(. c #CFB291",
"). c #D2B491",
"_. c #D8B790",
"`. c #D5B894",
"'. c #DBBA92",
"]. c #DBBE9A",
"[. c #E1B683",
"{. c #E2B886",
"}. c #E3BC8D",
"|. c #E8BF8D",
" X c #E2BE91",
".X c #ECC796",
"XX c #E2C29B",
/* pixels */
"g.f.:...) M Q w. .o.7.9.8.s.w.8.w.7.X.[ [ [ [  . . .X. .E P ] R P / ) / T ! ; I.g.:.*.a.l.s.h.o.q.a.s.N.E.W.M.v.s.9.c.d.d.s.r.d.",
"G.g.:.;.' i c 7.|  .o.9.7.8.w.7.7.q.X.] [ [ ] { X.[ X.[ | R ] ] ] ] L P U r 5 I.&.&.%.q.a.f.h.8.8.r.a.8.d.l.s.r.x.r.t.s.s.a.s.4.",
"`.R.W.J...u r  . .8.8.w.w.w.8.q.w.q.q.7.9.w.q.%.q.q.n.w.o.| / ( / ] / L J e ; P.f.z.a.s.V.B.v.c.V.A.C.c.m.N.C.C.A.A.C.c.E.C.C.A.",
"8 6 7 @.) M + & 1 q w 1 0 w > : > > 3 3 w 3 3 e 3 w 6 3 - % % O + > 1 k H S   - - < : e w q 1 q w p e e e d e w 4 3 4 4 4 3 3 4 ",
"@.' ( o.H U 0 $ & 0 0 0 0 0 0 r r r q q q r q r x M M H R ] R E T P P E H | X.M y r f r k k k b b H x S ( L b K L L S K L K K L ",
"*.f.:...x ] *.X.%.%.8.*.X.*.q.7.8.o.X.q.z.a.m.r. .E  .1.W 7.8.8. . . .| x ) q.z.v.s.v.s.8.a.q.8.8.8.X.' ` ` ` ^ ~ ! ~ ` @.} ) ' ",
";.;.:.$.o.;.&.&.e.&.;.:.o.;.*.g.z.*.....) ] | ( o.u L / L / L L H L H H S S L ^ ! ( ( ^ ( ^ ^ ^ ]  .h ` } ' ' ' ( ' ( K P L L J ",
"U.U.U.R.W.W.~./.^.W.^.^.W.^.K.j.C.s.s.8.7.q.j.7.M.= )  .E U J J J P P P P L ] [ ) ......} *.f.*.r. .d f.M.z.a.l.s.s.d.r.r. .W 1.",
"W././.^.W.~.).^.~.~.'.^.W.K.H.s.8.s.K.f.G.I.~.^.C.+ x E I [ X.) X.$.$.$.' ....| / ..$.} ..&.*.| R | g :.U.a.r.s.d.a.8.r.r.r.5.1.",
"/././.'./.'.'.]._.W.'.'.^.^._.~.K.K.~.I.J.T.~.z.x.# K X...$.-.$.&.} :.$.#.#.=.} ..#.` ;.*.%.o.| E I h  .r.r.8.4.4.1.1.5.5.d.k.d.",
"}././.'.].'.XXXX'.).'.'.~._._.I.K.I.R.).K.I.P.f.l.= ' f.;.#.=.-.=.#.=.#.S.S.F.;.F.F.-.F.P.H.f.o.a.J 1 U W 5.4.5.1.W W r.s.z.d.d.",
"~.).~.R.I.R.I.R.I.I.I.I.~.).R.P.J.I.~.~.I.I.L...h.2 ` G.F.F.-.D.-.#.:.F.S.S.F.I.F.F.F.=.G.P.R.L.f.n 1 U Y Y 6.5.5.5.t.s.r.8.r.t.",
"I.R.R.I.I.I.P.I.I.I.I.I.P.P.I.L.G.P.P.L.P.P.I.( f.6 #.P.F.F.F.F.-.=.:.S.#.#.-.L.F.S.S.S.F.F.I.G.:.n < W Y E W 5.1.t.d.s.t.t.5.i.",
"R.R.R.P.P.P.I.P.L.F.L.P.I.I.`.L.L.(.^.I.).I.G.$.k.5 _ D.#.=.=.=.#.:.;.$.#.@.$.;.#.O.#.S.F.F.f.%. .M q W W 1.4.t.s.s.s.z.z.d.5.3.",
"L.I.(.P.L.D.P.P.P.L.G.G.L.R.~.R.P.R.(.).).T.G.*.f.* ! @.+.=.-.-.:.:.&.;.-.#.$.@.@.#.&.-.S.;.:.*.) K v k.z.a.W.W.U.W.W.I.C.W.C.c.",
"F.I.I.P.P.F.P.R.R.R.I.R.P.(.).(.R.(.I.(.I.I.P.;.z.; O.P.F.;.-.&.*.#.#.:.F.=.S.-.$.#.-.F.F.F.*.&.*.L 7 P.G.J.~.R.R.~.~.R.R.k.k.k.",
"(.(.).I.P.L.J.F.I.L.I.G.K.I.L.G.L.L.D.L.-.-.@.( q.6 ` F.-.$.$.$.=.$.$.#.@.#.$.=.@.=.=.S.;.G.;.O.;.b g :.;.:.L.G.J.G.P.G.g.G.:.G.",
"(.(.`.R.P.R.R.I.).I.(.(.P.I.R.I.(.P.L.I.P.G.` A 7.- ` K.G.;.q.*.%.*.-.@.#.F.G.:.S.S.F.F.L.D.S.+.) K 4 f.U.U.Q.'.`.).].`.L.W.~.R.",
"; 5 , 5 5 5 6 5 5 5 5 s 6 6 5 5 s 6 6 7 6 5 8 ` W : X g 3 3 3 : 2 2 - * ; , 5 8 6 5 6 5 8 6 * s ( ..6 2 g s g g p s h g s 7 s d ",
"( ^ S v j v v ! _ A Z A +.` +.( _ ' ..+.! $.*.z.[ [ 0 q e e y y f k S v f 7 7 v A A l _ ! ' $.$.....&.@.*.J.;.g.....#.&.*.#...;.",
"w.K.a.z.q.n.m.s.x.w.7.i.x.n.Y.w.V.n.w.s.s.w.w.7.[ X.w.x.x.x.x.i.9.i.w.s.5.8.a...%.a.*.q.&.{ %.' ! b ' %.q.s.w.m.d.m.h.s.a.a.8.q.",
"' ..$.8.9./ N { ] / ] [ / ] [ [ X.) ..{ ] ..[ ] ) ) / B / ^ N / P L ^ 7. .^ ! Q @.A v ` $.{ ' ..' ' ..' ' ( ' ..( ) ( ( ( ) S S ",
"f.s.q.s.V.e ] n.h.w.w.G.H.H.e.H.f.G.H.f.H.z.U.e.H.U.j.e.e.G.G.e.;.$.-.X.5.c Z ;.*.$.&.J.k.e.q.f.;.*.q.q.e.q.g.q.%.a.*...q.o.| | ",
"I.a.q.q.Y.w / U.H.H.e.w.e.n.n.n.n.w.s.q.w.x.w.w.w.H.w.e.j.n.Y.U.U.H.e.*.8.f C F.;.;.g.;.f.e.q.q.*.q.k.q.%.o.k.f.f.*.*.o.*.*.X.X.",
"K.J.:.a.U.p { Y.Y.V.n.n.V.V.i.9.n.V.n.V.m.Y.Y.n.n.n.x.Y.V.n.n.n.w.w.q.q.7.k _ &.#.-.*.&.:.:.f.f.e.z.k.q.%.X.f.z.q.o.*.8.o.X.X.] ",
"m.v.K.J.!.k / V.U.V.!.M.U.z.q.e.U.U.U.H.U.n.z.n.U.U.Y.h.H.H.U.H.h.z.q.7.9.a h ;.} -.;.:.*.*.e.a.e.a.q.a.q.*.a.a.q.o...X...| { ] ",
"R.W.P.:.U.v ( H.h.z.H.H.H.H.H.e.n.h.n.n.H.h.h.H.n.n.w.H.H.n.H.w.e.e.e.*.9.a ! &.$.;.-.*.%.*.*.a.f.q.*.q.q.%.q.X.q.*.o.*.X.| R ] ",
"z.z.f.*.Y.A _ z.h.z.e.n.n.n.n.U.n.H.H.K.T.~.I.G.T.K.H.T.G.H.G.G.e.e.$.%.9.a ..o.*.;.-.$.*.*.*.q.z.q.X.q.o.*.q.%...*.o.X.X.X.{ ] ",
"v.N.r.a.E.z / i.n.n.x.x.z.H.K.H.K.G.G.H.H.I.H.K.H.K.K.L.G.L.P.G.D.;.=.$.8.a ) 8.&.&.;.*.*.%.f...q.*.o...{ X.*.*.*.%.....| | X.X.",
"N.W.k.:.E.p ! M.H.H.H.H.K.K.K.G.e.f.H.h.G.H.H.e.h.G.H.H.H.H.e.F.e.;.;.-.X.r ^ X.&.$.;.&.;.%.*.f.*.o.q.o.) o.o.o.*.%.X.X...] | ..",
"~.`.R.;.C.f b j.q.w.e.n.w.h.w.x.w.w.w.w.w.w.n.w.w.w.n.x.n.n.w.w.w.w.7.o.4.e f ..$.&.$.;.*.$.%.%.X.*...X...*.o.......X...] ) ) ..",
"R.R.P.$.s.f / b.x.9.9.x.x.i.n.x.x.x.x.x.9.x.i.n.x.x.x.n.j.H.H.H.e.e.....4.3 s $.} } } %.;.&.%.%.$.%.*.%.%...[ ..%.....] ) L P ] ",
"K.).P...h.h $.!.V.[.[.Y.[.Y.Y.V.v.n.!.[.V.E.W.W.W.!.W.~.R.R.P.J.L.G.=.$.o.a * ' &.@.@.' ;.g.*.*.q.' ' %.o.o.X.q.$.....| X...| ] ",
"s 8 s $.w.s * p p f g p c f c f p e p s p g d 7 s s g 7 6 7 3 3 6 5 6 ` ] L 2 . * O 2 - O 3 3 @ : c : 3 < 1 : : : : : : : - : > ",
"q.g.z.M.K 7.P L N N R P P L L K ] X.' %.%.*.:.) ( ' ....| / L ] R ) X.7.P  .o...' | o.a.*.o.q.*.*.o.q.w.o.o. .o.X.X.| | | ..X.X.",
":.*.;.$.` &.G.g.;.H.a.f.q.e.a.f.q.*...%.&.} }  .8.j.h.d.X.| ) ] / / / K v ( K ) ....o.;...| ..$.q.9.q.;.@.@.` @.' ( ^ ^ ( ` ! ! ",
"+.@.+.O.#.+._ +.O.! O._ +.+.@.` +.@.+.O.` @.O.$.Q.} g ^ ! ^ ( } ( K Q A ! ` ' ` ( S v S ( ' ] ( h.q.g _ +.@.@.} @.@.#.$.' @.@.' ",
"F.G.;.F.;.F.L.F.D.G.D.L.L.G.L.L.K.G.D.L.:.G.:.:.{.a v %.....} ....X.....' } *.&.:.:.$.;.*.f.z.o.x.e.V G.L.F.f.J.J.:.f.g.J.:.;.&.",
"P.P.P.L.F.P.G.F.L.J.D.L.P.I.L.G.G.G.G.L.J.G.*.f.{.3 f a.$.&.' ....) } ..$.' $.$.$.$.} *.X.:.z.X.s.h.V I.I.P.z.K.W.U.K.f.f.g.:.:.",
"L.P.I.G.G.K.G.D.G.K.K.P.P.T.I.G.P.P.G.F.G.F.:.:.!.7 h %.} @.@.$...) $.*.%...*.*.*.X.o.:...r.d.5.x.s.V P.~.~.'.I.).~.K.K.z.f.g.a.",
"W.~.R.I.I.J.P.J.L.P.I.I.I.I.K.I.I.J.F.).K.I.J.G.!.7 v ....$.$...@.} @.;.&.' $.*.*.*.*.*.%.f.l.o.s.d.Z L.I.R.R.R.R.z.z.U.:.;.a.a.",
"s.m.l.z.~.'.).~.P.~.T.~.(.T.~.I.T.G.h.z.k.K.G.K.|.3 v 8.$...@...} ..) &.} ` } ;.f.:.;.;.f.f.z.X.t.t.h W.E.^.M.E.C.z.z.z.z.a.q.l.",
"9.t.t.t.a.v.Q.B.U.W.T.~.I.j.U.U.M.j.d.9.t.a.z.f.[.1 f o.} ' ' } } } X.X.$.X.X.q.a.*.&.%.*.a.d.o.x.7.p d.N.M.l.C.C.v.s.v.C.C.d.8.",
"U.K.K.l.c.N.m.N.n.M.Y.Y.!.^.U.n.h.s.9.s.s.x.d.a.A.< f o.....' $.' ( } ( ^ ( ' 7.*.o.*...o.X.s.X.s.8.j W.z.k.!.m.v.W.s.t.N.z.C.t.",
"P.I.G.G.f.k.U.U.U.Y.U.U.W.^.K.T.~.~.W.H.z.m.s.8.c.: z 8. .| ) ) ] P | ( | R ] |  . .o. .5. .r. .5.q.V ^.f.Q.H.W.H.N.j.H.k.K.!.W.",
";.G.;.&.;.$.;.;.G.J.;.-.L.G.&.G.T.I.f.g.f.z.f.a.p.& x  .R  ...|  .R P  .X.| T  .o. .7.| 7. .o.) 4.a.V P.T.T.P.K.W.K.H.e.g.f.H.~.",
":.G.G.G.;.&.;.;.&.;.e.;.G.L.;.S.G.F.-.;.I.G.&.o.b.& u t.a.:.f.:.&.*.| ] ) |  .4.4. . .| | ..;.) 4.o.C G.H.I.I.I.g.~._.W.U.U.^.R.",
"g.G.G.z.G.g.:.g.f.e.K.K.k.P.J.G.G.;.G.-.L.;.@.` N.o 1 o.$.$.#.=.-.' O.` ~ ' R  .| ..' ` @.:.;.' 8.) * $.q.*.G.G.;.e.G.e.;.;.g.G.",
"3 p s p 1 7 p p 7 6 3 6 5 5 6 , 2 2 2 2 2 ; 2 ' 5.H - * * * - - - ; , 7 2 O O @ 2 2 C d - - - h *.X.3 - < < 3 3 3 7 3 3 3 2 3 8 ",
"] ) ) X.x K ....' ) X...) %.;.e.&.o...| ....o.r.R  .5.*.o.....$...&.} ) R H P } | o.s.t. .( } o.] { a.8. .| o...$.X...| X.| ' X.",
"f.k.q.q.*.J  .j.5.5.5.>.Y Y ,.4.l.:.a.o.a.a.8. .X.o.o.o...*.X...} } S H H H f ~ ( ( P ] | X.| ' L P ) / X.....| | ] ( | .. .K K ",
"^./.W.%.v.% ] C.x.v.v.i.2.1.D m 2.x.s.l.~.^.s.r.d.s.s.6.5.s.t.d.W W ....U S : ) :.X...o.r.:.r.:.a.a.r.s.a.a.a.a.a.z.r.a.q.d.a.q.",
"K.K.l.&.h.3 P p.C.C.E.A.V.v.v.2.<.y.i.p.^.C.r.4.t.5.y.1.t.t.y.5.W r.s.R W r f :.} ..o.X.o.X.o.o.o.o.X.o.o.r.a.r.a.s.a.a.h.h.d.h.",
"s.s.o.o.c.< | p.s.C.Q.N.v.A.v.6.3.t.y.t.p.i.<.Y 1.t.t.t.r.r.x.d.r.r.:.o.Y y h :.:.o.o.o.a.s.r.a.*...a.o.r.:.a.s.q.:.a.h.f.f.a.:.",
"i.b.7.| 9.< J <.Y y.x.s.s.t.p.,.Y 3.2.Y 2.r.t.Y y.^.d.d.d.U.U.z.k.r.r.X.W u d :.:.o...o.r.*.*.*.*.f.a.f.a.a.a.z.a.a.z.z.z.K.a.*.",
"x.b.m.8.9.%  .t.r.y.3.t.x.9.N.Y Y 0.1.y.v.A.C.C.k.Q.C.d.v.r.o.r. .r.o. .t.r h o.} $...:.:.a.a.:.;.a.:.k.:.r.:.d.a.:.z.k.U.z.k.f.",
"x.x.t.| 4.1 o.V.t.y.6.i.N.Q.^.A.x.N.v.c.!.x.v.i.4.1.>.>.6.6.I E W 5. .R 1.l Q f.;.*.*.f.q.f.z.k.:.k.:.d.s.h.z.z.*.f.a.:.a.z.:.f.",
"i.p.t.[ 6.3 R b.t.p.c.b.i.i.b.b.b.i.2.3.i.i.p.b.i.2.F >.<.9.m.v.t.5.a.R G L ~ J.&.%...*.H.f.f.f.a.f.a.h.a.f.h.a.o.*.q.a.a.f.-.*.",
"!.A.M.8.i.3 J 0.<.3.y.p.6.6.p.V.E.s.2.6.b.v.m.z.M.i.3.3.0.x.z.K.s.s.k.P Y ' v g.&.&.*.f.z.K.f.a.a.a.:.*.a.a.a.*.:.o.f.f.k.k.:.:.",
"^.}.H.*.^.e 7.u.<.5.i.x.V.N.s.K.^.z.c.N.A.^.E.K.U.d.x.x.v.A.W.~.z.z.U. .Y ( z :.&.*.;.f.K.z.:.;.k.f.d.*.r.:.*.;.8...;.f.:.&.&.o.",
"U.W.K.' ].V *.A.i.x.m.w.m.s.s.z.W.^.~.W.K.U.I.K.'.^.T.W.^././.W.d.a.d.a.W u A :.&.;.$.*.e.f.*.&.$.;.a.&.$.:.f.:.' :.&.:.:.} } ..",
"!.|.^...z.s e..X|.}.}.}.}./.'.^.}.XX'./././.!.Q. XQ.[.^.A.b.p.N.t.d.R T E r s :.G.G.f.~.W.T.K.K.K.E.K.K.U.K.W.W.z.W.K.z.a.:.f.f.",
"z v f L | e - h p d g h h g d g s p e e e q e e r q q q q 0 > < 4 p 3 P R S 5 3 * - , p 7 7 7 s s s d d 7 g 7 7 d d 8 d 7 d d d ",
"& & 9  .L ' ! N N M M N M L B N N b L L i i M K N / ^ ( / ^ N K l x r.R H ) ) b c a a 3 e p w p w e e e w < < 3 - < < - < : - : "
};
