/* XPM */
static char *_64163cecb3043eea7ff71fd10b9e0945LKSXdTiG13PSh58[] = {
/* columns rows colors chars-per-pixel */
"64 64 233 2 ",
"   c #452F1A",
".  c #43311D",
"X  c #4B341E",
"o  c #55341C",
"O  c #59351D",
"+  c #55381F",
"@  c #6A3216",
"#  c #683619",
"$  c #6E3A1B",
"%  c #75351B",
"&  c #733C1D",
"*  c #7D3F1D",
"=  c #443320",
"-  c #4D3721",
";  c #4F3924",
":  c #513721",
">  c #533A25",
",  c #5A3B23",
"<  c #593C25",
"1  c #543E29",
"2  c #673D23",
"3  c #733B21",
"4  c #6F401F",
"5  c #7C411E",
"6  c #594029",
"7  c #5B422C",
"8  c #5D4631",
"9  c #5E4833",
"0  c #64432C",
"q  c #6B462B",
"w  c #724426",
"e  c #7B4323",
"r  c #764329",
"t  c #7A4529",
"y  c #744A2B",
"u  c #7B4C2B",
"i  c #7D502F",
"p  c #634A34",
"a  c #654B35",
"s  c #6C4C34",
"d  c #654E39",
"f  c #774933",
"g  c #66513C",
"h  c #6C533D",
"j  c #76573B",
"k  c #73533C",
"l  c #6C5540",
"z  c #725641",
"x  c #745942",
"c  c #7B5B45",
"v  c #7B5E49",
"b  c #7F6145",
"n  c #7C634A",
"m  c #7E6952",
"M  c #82361D",
"N  c #843D1B",
"B  c #883F19",
"V  c #943D1C",
"C  c #983F1D",
"Z  c #A83B15",
"A  c #AC3E19",
"S  c #B03F1A",
"D  c #833A21",
"F  c #84411C",
"G  c #88411C",
"H  c #9D4217",
"J  c #9E451A",
"K  c #9F481E",
"L  c #A7421D",
"P  c #AD431E",
"I  c #A2491E",
"U  c #A94B1E",
"Y  c #B4441E",
"T  c #BA451E",
"R  c #B8501F",
"E  c #854C2A",
"W  c #884A2A",
"Q  c #984827",
"!  c #9A4A29",
"~  c #864C31",
"^  c #905332",
"/  c #98583B",
"(  c #AE4521",
")  c #A94C25",
"_  c #AB4E2C",
"`  c #B44621",
"'  c #B54A26",
"]  c #BC4823",
"[  c #AA5125",
"{  c #A9562C",
"}  c #BE5625",
"|  c #B35028",
" . c #BC532D",
".. c #BE5828",
"X. c #A05635",
"o. c #AA5433",
"O. c #A65935",
"+. c #AA5932",
"@. c #A75938",
"#. c #AC5B3A",
"$. c #B35533",
"%. c #BE5732",
"&. c #B25B34",
"*. c #BC5934",
"=. c #B35C3B",
"-. c #BB5E3A",
";. c #A56439",
":. c #AB663A",
">. c #AA633C",
",. c #B66236",
"<. c #BC6532",
"1. c #B5663C",
"2. c #BB623E",
"3. c #B46C3E",
"4. c #BA6B3E",
"5. c #BD703F",
"6. c #C04922",
"7. c #C05524",
"8. c #C15929",
"9. c #CB5D2A",
"0. c #C55933",
"q. c #C95C37",
"w. c #C46027",
"e. c #CD662C",
"r. c #CD682F",
"t. c #D6622D",
"y. c #D2692E",
"u. c #C56134",
"i. c #C96235",
"p. c #CE6A31",
"a. c #C4633D",
"s. c #CA663B",
"d. c #C2693B",
"f. c #CE683D",
"g. c #D26C34",
"h. c #D86F33",
"j. c #D26E3E",
"k. c #CD723C",
"l. c #D3713E",
"z. c #DB723B",
"x. c #8D5E44",
"c. c #AD5F40",
"v. c #846548",
"b. c #9A644A",
"n. c #846C54",
"m. c #986C55",
"M. c #9D715A",
"N. c #AA6B47",
"B. c #B56344",
"V. c #BD6340",
"C. c #B66E42",
"Z. c #B96E41",
"A. c #B36A4C",
"S. c #BA6B4B",
"D. c #AD734B",
"F. c #B77246",
"G. c #BB7142",
"H. c #B4754C",
"J. c #BA744B",
"K. c #B26E52",
"L. c #B26F58",
"P. c #A77457",
"I. c #BC7353",
"U. c #B37A54",
"Y. c #B7775A",
"T. c #B97C5B",
"R. c #A87B65",
"E. c #BB7C63",
"W. c #B97B66",
"Q. c #C46542",
"!. c #CC6743",
"~. c #C46B45",
"^. c #CD6844",
"/. c #C26C4B",
"(. c #CA6D4A",
"). c #D06843",
"_. c #D16944",
"`. c #C47645",
"'. c #C5724B",
"]. c #CB7748",
"[. c #D47242",
"{. c #DA7442",
"}. c #D57648",
"|. c #D37A4C",
" X c #DA7849",
".X c #C37452",
"XX c #C57B5D",
"oX c #CA7A58",
"OX c #D17A56",
"+X c #D2795E",
"@X c #E17743",
"#X c #E77945",
"$X c #CA7B61",
"%X c #D27B62",
"&X c #B9825C",
"*X c #AA816D",
"=X c #BC8564",
"-X c #B3856A",
";X c #B88769",
":X c #BC8C6D",
">X c #AD8571",
",X c #B58874",
"<X c #BC8C72",
"1X c #BD9273",
"2X c #CB825D",
"3X c #D4855A",
"4X c #C3866B",
"5X c #C88768",
"6X c #CD8A6B",
"7X c #D38464",
"8X c #D48767",
"9X c #DC8067",
"0X c #C2916C",
"qX c #DB946B",
"wX c #C88871",
"eX c #CD8C73",
"rX c #D48F7B",
"tX c #C59777",
"yX c #CC9273",
"uX c #D49778",
"iX c #D59B7C",
"pX c #E28B69",
"aX c #E4A17E",
"sX c #CC9A83",
"dX c #C59A8B",
"fX c #CA9988",
"gX c #D49D84",
"hX c #DA9882",
"jX c #C99F90",
"kX c #CAA183",
"lX c #D8A487",
"zX c #E4A988",
"xX c #E5AE97",
/* pixels */
"F.G.G.G.G.G.G.G.G.G.G.G.G.G.G.G.G.G.G.G.C.`.w j s.} ....8.8.8.8.8.8...8.8.8.8.8.8.8.8.8.8.9.* k +.J K I I I I I I I I I I I I I ",
"Z.Z.4.C.5.C.C.C.5.C.C.G.5.G.C.C.G.Z.C.G.3.`.q j e.} ..................} ........} 8.....} 9.& s [ J K K I J J K K K K K K K K K ",
"`.`.`.`.`.`.`.`.`.`.`.`.`.`.`.`.`.`.`.`.`.].u u t.9.9.9.9.9.9.9.9.9.9.9.9.9.9.9.9.9.9.w.9.t.e 0 [ U U U U U U U U U U U U U U U ",
"u u u i u i u u i i i u u u u u u u u t u u + o * * W e F 5 5 5 e W F 5 5 * 5 5 5 * 5 5 * 5 O o % $ $ $ $ $ $ $ $ $ 4 & $ $ $ $ ",
"d d a a s p p 0 0 , . g h h h h l l l z l h l l g g g g d d d p q , . d h h h h h h h h l l h h g d d d s d p p 0 < = 9 p d d d ",
"'.`.'.~.^.j.s.s.j.+.6 zXxXzXlXiXiXuXuXqXqXqX8X7X3XoXOXOX|. X X}. X4.> lXzXiXuXyXyXyX6X8X7X7XoXXX.X`.'.~.~._.^.s._.=.; >X,XR.R.P.",
"i.s.s.i.i.s.s.s.f.o.6 lX2X}.}.[.].[.[.[.[.[.[.[.[.[.[.}.[.}.}.}. X4.> gX.Xs.s.a.a.u.u.u.u.i.i.i.p.s.i.s.p.s.s.i.f.&.1 >X^ M D 3 ",
"s.s.s.s.s.s.s.s.j.+.6 lX|.[.}.}.}.}.}.}.}.}.}.}.}.}.|.}.}.}.}.}. X1.> iX~.i.s.s.s.s.s.s.s.s.s.s.s.s.s.s.s.s.s.s.f.&.1 W.D M D D ",
"s.s.s.s.s.s.s.s.f.{ 6 iX}.}.}.}.}.}.}.}.}.}.}.}.}.}.}.}.}.}.}.[. X2.1 yXs.s.s.s.s.s.d.s.i.s.s.i.s.s.s.s.s.s.s.s.f.$.> R.D M D D ",
"s.s.s.s.s.s.s.s.j.o.7 yX}.}.}.}.}.}.}.}.}.}.}.}.}.}.}.}.}.}.}.}. X1.6 4Xs.s.s.s.s.s.s.s.s.s.s.s.s.s.s.s.s.s.s.i.f.&.1 m.D M D M ",
"s.s.s.s.s.s.s.i.f.o.7 6X[.}.}.}.}.}.}.}.}.}.}.}.}.}.}.}.}.}.}.}.}.1.6 2Xi.s.s.s.s.s.s.s.s.s.s.s.s.s.s.s.s.s.s.s.f.&.1 b.M M M D ",
"s.d.i.s.a.s.s.s.f.{ 1 XX[.].[.}.}.}.}.}._.[.[.}.}.[.].[.}.}.}.}.}.1.1 I.s.d.s.s.a.s.s.s.s.s.s.s.s.a.s.a.s.s.s.s.f.$.1 x.M D M M ",
"s.f.f.f.f.f.f.f.j.,.> .X@X X X X|. X X X X X X X X X X X|. X X}. XZ.6 C.p.f.s.f.s.f.f.f.f.f.f.f.s.f.f.f.f.f.f.s.).$.; ~ M M D M ",
"&.&.&.&.&.#.$.+.&.! - B.Z.V.4.V.V.V.Z.Z.2.Z.Z.4.Z.V.2.4.3.3.3.4.~.@.. O.&.+.&.+.&.&.&.&.&.&.&.&.&.&.&.&.&.&.$.&.&.X.X 3 % % % % ",
"> > > > > > > > 1 1 1 < 1 6 6 1 > ; ; ; > - X - > > 1 1 6 6 6 6 6 6 6 6 7 6 6 6 ; ; ; - - > X : > > > > > > > > < 1 > 1 1 > < > ",
"wXwXwX4XwX4X$XE.Y.Y.K.K.K.B.B.#.@.@.o._ ) ` @ m lXkXkXkXkXtXtX1X1X;X-X;X=X=X&XU.U.D.D.D.N.G.q j eX4X;X4X4X=XE.W.Y.L.L.A.A.B.B.c.",
"4X$.$.' ' ' ] ' ( ` ` Y Y Y Y Y Y T T Y Y 6.@ n.lX&XF.H.F.2XH.5.G.C.5.5.3.5.4.5.4.G.5.G.G.`.w c eX@.o._ ( ' ( ( ( ( L P A A P A ",
"I.P ` ` ` ` ` ` T T ` ` ` ` ` ` ` Y ` ` ` ] @ n.tX:.5.5.5.<.5.5.G.G.C.G.G.G.G.G.G.G.G.G.G.`.w c XXZ A Y P P P P P P P P Y ( ( P ",
"/.S ` ` ` ` ` ` ` ' ` ` ` ` Y ` ` ` ` ` Y ] @ n.qX3.G.G.5.5.F.5.G.G.G.C.G.G.G.G.G.G.G.G.G.`.w v .XA P P ( P Y P P P ( ( ( P P P ",
"=.Y ` ` ` ` ` ` ` ` ` ` ` ` ` ` ` ` ` ` ` ] @ m 5X3.G.5.5.5.5.F.G.G.G.G.G.G.G.G.G.G.G.G.C.`.w x V.A ( P P P ( ( P P P P P Y P P ",
"_ S ` ` ] ` ` ` ` ` ` ` ` ` ` ` ` ` ` Y ` ] @ m &X5.5.C.G.G.G.G.G.G.G.G.G.G.G.G.G.G.G.G.G.`.w j =.A P ( P P P P P P P P P ` P P ",
"` ` ` ` ` ` ` ` ` ` ` ` ` ` ` Y ` ` ` ` ` ] @ n .XG.5.5.C.G.G.G.G.5.C.G.G.G.G.5.G.G.G.5.Z.`.y k | L P P P P P P P P P P P L P P ",
"] ` ` ` ` ` ` ` ` ` ` ` ` ` ` ` ` ` ` ` ` ] $ j `.G.G.G.G.G.G.G.G.G.G.G.G.G.G.G.G.G.G.G.G.`.y q ] P ( P P Y P P P ( Y ( ( P P ( ",
"` ` ` ` ` S ` ` Y ` ` ` ` ` Y Y Y ` ` ` Y ] $ s G.3.5.C.5.4.5.4.5.C.5.G.C.4.G.G.G.C.4.C.3.`.f 2 ` L L P P L L P L P L P P P P L ",
", : , , , , , , O , O O O O O O O O O O O O X > 7 6 6 6 6 7 6 1 6 , 1 < , < + + , , < , < 6 - X , O , , O , , , O O , o o o O O ",
"M.m.m.b.b.b.b./ X.~ ; W.<X<X<X,X,X-X>X-X-X-X;XP.P.P.P.N.N.N.N.>.:.^ ; R.>X>X,X>X>XR.*X*X*XR.R.R.M.m.m.m.b.b.b.x./ ^ - M.R.R.R.P.",
"Q.V.Q.V.V.V.V.q.!.@.1 zXiXqXpX8X2X3X3X|.|. X X X X[.l.l.{.z.z.{.{.<.> lXuX8X6X5X$XY.I.I./.~.~.~.Q.V.V.V.Q.q.V.q.~.#.> eX$X~.S.=.",
"V.V.V.V.V.V.V.B.a./ 1 lX].g.h.j.j.j.g.l.z.j.j.l.l.l.l.l.l.l._.l.z.1.> fXA.&.-.*.-.-.-.-.2.2.-.V.V.V.V.V.V.V.V.V.Q.@.: 4Xo.Z A A ",
"V.V.V.V.V.V.V.V.Q./ 6 lX[.l.[.j.l.l.[.l.l.[.l.l.l.l.[.l.[.j.j.l.{.,.> sXS.2.V.V.V.V.V.V.V.-.V.V.V.V.V.V.V.V.V.V.Q.@.> 4X' L ( ( ",
"V.V.V.V.V.V.V.-.a.X.6 yXl.l.[.l.[.z.l.[.[.l._.[.l.[.l.l.l.[.[.l.{.,.1 <XV.2.V.V.V.-.V.V.V.V.V.V.V.V.V.-.V.V.V.-.d.@.> E.( ( P P ",
"V.V.V.V.V.V.V.V.Q./ < 6Xj.l.[.{.[.[.l.l.j.[.l.z.[.[.l.[.l.{.j.l.{.&.1 -X-.V.V.V.V.V.V.V.V.V.V.V.V.V.V.V.V.V.V.V.V.@.1 L.L P ( P ",
"V.V.V.V.-.V.V.V.Q.X.6 2Xj.l.l.l.l.l.[.l.{.j.[.l.l.l.{.l.[.l.[.j.{.,.1 $X-.2.V.V.V.V.Q.V.V.V.V.V.V.V.V.V.V.V.V.-.Q.@.1 B.A ( ( Y ",
"-.B.V.V.V.2.2.2.a./ > .Xj.[.l._.j.l.j.l.f.l.l.l.j.l.[.j.j.l.j.l.[.,.; K.2.2.2.2.2.2.2.2.2.2.V.2.2.V.2.2.2.2.2.2.V.O.> @.A ( L ( ",
"~.^.~.^.~.Q.~.!.^.#.1 ].@X@X@X{. X@X@X#X@X@X@X@X@X@X{.@X@X@X@X{.#Xd.> A.^.~.^.Q.~.s.Q.^.~.Q.!.Q.~.Q.Q.~.~.!.Q.!.^.#.> _ T ` T Y ",
"t t t 3 r r w r t 3   E W E W W E W W E ~ E ~ E E E E E E E E E W e . r t e e t u u u u u f u u t t t t t r t t t w   $ % % % % ",
"z c c c c c c c v x v z l j l z k s a 0 q q X 1 j h l j l x x l z l x j h h h h s p 0 7 2 # X 1 j j z z x x x x x l x x h h h h ",
"hXrX6X6X5X%X7X+XoX.X/./.Q.Q.Q.q.q.q.q.q.0.q.3 b iX;X&X&XU.U.I.J.C.C.>.:.+.+.{ { [ [ [ U U U # b iX;X=XT.U.U.H.J.A.:.:.:.;.{ { [ ",
"5X$. .%.$. . . . . . .0. .%.%.%.%.%.%.%. .0.3 c ;XJ K K J H J H H H J J J K J J K K J K I I # x ;XJ J J J J H H J J J J L J J J ",
"$X .0.%.%.%.%.0.%.%.%.%.%.%.%.%.%.%.%.%.%.q.$ n Y.H I I I I I I Q I K K I K K I K K K I K U # x U.H I K Q I I I I I K I I K K I ",
".X .%.%.%.%.%.%.%.%.%.%.%.%.%.%.%.%.%.%.%.q.$ c J.H I K K I I I I I I I I K I I I I I K K U # n J.H ) J I I K K I I I I I K I I ",
"B.%.%.%.%.%.0.%.%.%.%.%.0.%.%.%.%.%.%.%.%.0.$ x >.H I I I I I I I I I I I I I K I I I K I U # n >.H I I I I I I I I I I K I I K ",
"$.%.%.%.%.%.%.%.%.%.%.%.%.%.%.%.%.*.%.%.%.q.3 x +.J I I I I I I I I I K I I I I I I I K J U # j +.J K K K I I I I K K K I I I I ",
"%.%.%.%.%.%.%.%.%.%.%.%.%.%.%.%.%.%.%. .%.0.3 k [ I I I J I I I I I K I K K K I K K K K J U # j [ K I I I K I I K I K K I K K K ",
"0.0.0.0.0.0.0.0.0.0.0.0.0.0.0.0.0.0.0.0.0.q.w q | I I I I U I I I U I I U U I U I U U I I U 4 q [ I U I U I U I U I U U U I U U ",
"! ! ! ! Q ! ! ! ! ! ! ! ! Q ! ! Q Q Q Q Q ! # o B N N N W D D D B F F B N N 5 F F F F F 5 G O O G N F B F F F F F F F B F F F F ",
"8 8 8 7 1 7 7 < < : - 9 8 p p a p p p p a d a a 9 8 8 8 2 < a 1 7 , - 8 p 8 9 9 8 p p p p p 9 p p 8 8 7 7 6 7 7 7 < = 8 7 8 p 7 ",
"V.c.#.@.o._ _ ( ` V < gXlXhXgXhXrXtXwX6X5X5X8X7X$XoX.X/./././.!._.=.> kXlXkXlXiXtX1X1X1X:X=X0X0X&X&XU.H.H.H.F.C.G.;.> sXlXgXgXgX",
"A A A P A P A ( ` C < lXXX(._.(.^.^.!.!.!.!.!.s.).!.).!._._.!.!._.=.> kX&XF.J.G.5.5.5.3.3.5.<.5.4.5.5.5.G.5.G.Z.`.:.> fXE.B.S.V.",
"` ( P L ( L ( ( ` V 1 gX(.!.!.).).^.).^.).^.!.!.!.!.!.!._.!.!.!._.>.6 kXH.5.5.G.G.G.G.G.G.G.G.G.5.G.G.G.G.G.C.G.G.;.> fXS.-.2.2.",
"( ( P ` ( ` P A ` V 1 iX(.).).!.).^.(.).^.^.(.!.!.!._.(.!.(._.!._.@.6 tXG.C.G.G.G.G.G.G.G.G.G.G.G.G.G.G.G.G.G.G.G.;.> tXS.-.2.Q.",
"P P P ( A ( ( P ` V 1 4X!.!.!.!.^.).^.).).^.^.)._.!._.!._.!.!.!._.=.6 ,XG.5.G.G.G.G.G.G.G.G.G.G.G.G.G.G.G.G.G.G.G.;.6 :XV.2.V.V.",
"P ( P P ( P P P Y V 7 5X!.!.!._.).^.).).^.).).^.!.!._.!.!.!._.!._.&.6 =X5.G.G.G.G.G.G.G.G.G.G.G.G.G.G.G.G.G.G.G.`.;.6 ;X-.V.V.2.",
"( P ( ( A ( L ( ` V 1 XX).!.!.!.).).!.!.!.!.).).!.!.!.!.!.!.!.!._.=.1 &X5.G.G.G.G.G.G.G.G.G.G.G.C.5.G.G.5.G.G.5.G.;.1 T.-.V.2.2.",
"` P ( ( ( ( ( ( ` C > /.)._._._.).).).).).).)._._.(._._._._._.!._.-.; D.G.G.G.G.G.G.G.G.G.G.G.G.G.G.G.G.G.G.G.5.`.>.; A.Q.Q.Q.V.",
"A ( A A A A L A L V : B.a.Q.Q.Q.Q.Q.Q.Q.Q.Q.Q.Q.!.!.Q.Q.Q.Q.Q.!.!.#.- N.3.3.:.3.3.3.3.3.3.3.3.C.3.3.3.3.3.3.3.3.C.;.- c.-.=.=.=.",
"- - ; - ; > ; ; : - ; < < 1 > < 1 > > > : > ; > : : : : : < : : > - - > 6 ; 6 6 6 > > > - > - - ; ; + ; 6 + ; ; > - - > 1 > 1 1 ",
"jXdXjXjXdXdXdXdXdXfXdX,XW.,XW.W.$XW.W.Y.L.Y.2 v iX0X0X:X0X0X0X0X0X=X&X&X&XU.D.H.F.G.3.3.:.<.4 j eX0X0X:X:X:X;X;X;X4X=XT.P.P.U.D.",
"xXhXfX%XwXwX%XrX%X%X%X%X$X%X%X%X%X%X%X%X%X%X~ v.aX3X3X3X3X`.k.k.l.g.g.g.p.p.p.p.y.r.y.y.y.h.e b zXoX'.'.Q.Q.d.a.u.w.0.8.8.8.8...",
"fX+X%X+X%X%X%X%X%X%X%X%X$X%X%X%X%X$X$X+X%XpX~ v.qXw.e.e.e.e.r.r.r.r.r.r.p.p.p.p.p.p.p.p.e.h.5 b 5XR 7.7.} 7.7.7...8.} 8...8.8.8.",
"hX+X%X%X%X%X%X%X%X%X%X%X%X%X%X%X%X%X%X%X%X%Xf v.qXr.p.p.r.e.p.p.r.p.p.p.p.p.p.p.p.p.p.p.r.h.5 n 3X} 8...8.8.8.8...8.8.8.8.8.8...",
"$X%X%X%X%X%X%X%X%X%X%X%X%X%X%X%X%X%X%X%X3X8Xy n 3Xe.y.y.p.p.p.p.p.p.p.p.p.p.p.p.p.p.p.r.p.h.5 n |.] 8.8.8.8.8.8.8.8.8.8.8.8.8.8.",
"W.%X%X%X%X%X%X%X%X%X%X%X%X%X%X%X%X%X%X%X+X8Xi b ].y.p.r.p.p.p.p.p.p.p.p.p.p.p.p.p.p.p.p.r.h.5 c ~.} 8...7.8.8.8.8.8.8.8.8.8.8.8.",
"$X%X%X%X%X%X%X%X%X%X%X%X%X%X%X%X%X%X%X%X$X9Xi b k.r.p.p.h.p.p.p.p.p.p.p.p.p.p.p.p.p.p.p.p.g.5 x i.7.8.8.8.8.8.8.8.8.8.8.8.8.8.8.",
"%X%X%X%X%X%X%X%X%X%X%X%X%X%X%X%X%X%X%X%X%X9Xi j h.r.p.p.p.p.p.p.p.p.p.p.p.p.p.p.p.p.p.r.r.h.e k e.....8.8.8.8.8.8.8.8.8.8.8.8.8."
};
