/* XPM */
static char *_89fb7d0f3cf4ccfb822e798d60d85a9PEcGtVvVuzhvoDJp[] = {
/* columns rows colors chars-per-pixel */
"64 64 34 1 ",
"  c #6D6C6D",
". c #757475",
"X c #777679",
"o c #78777A",
"O c #7B7B7D",
"+ c #7E7E80",
"@ c #807F81",
"# c #838385",
"$ c #888787",
"% c #868689",
"& c #88878A",
"* c #87888B",
"= c #8B8A8D",
"- c #908E8F",
"; c #8E8E91",
": c #908F91",
"> c #939294",
", c #969699",
"< c #98979A",
"1 c #9B9A9D",
"2 c #9E9EA1",
"3 c #A09FA2",
"4 c #9FA0A2",
"5 c #A3A2A5",
"6 c #A6A6A9",
"7 c #A8A7AA",
"8 c #A7A8A9",
"9 c #ABAAAD",
"0 c #AEAEB1",
"q c #B0AFB2",
"w c #AFB0B2",
"e c #B2B1B4",
"r c #B7B6B8",
"t c #B8B7B9",
/* pixels */
"eree0976999767wreeq8859q9q88789qer997793<588<888898835<<8851----",
"09q0799ww779wweetq9989qqeeq9979etqqq9793<88558588q883535983<----",
"09q09e0e0weew79eeq99999q8q98775qteqqe997188833-<15<<1558qq3-----",
"99909e99wwwq779eq9853789qq738799rtqetq73<1--<<58-----5<1893<>---",
"7099900000w99799e988898qqq8579qqqrqqee7-@11--158385<35558w81<>->",
"9ew699e909900w99e989899qq955899qrq9qqq9<---3-<35-<<-1358w881->--",
"re0990q988090w07qq99qq8qq8889998rq9qq99313-385--13589138w88<>---",
"w090909688989079q9q8q9qqqq889979e9999993585351-<<331<<<88w4-$--$",
"q99q99987799098erq9qqqqqeq957797rq9qq973<1333<-3,--$>--888--$$>:",
"9q99qqq9997709389778788qqq937999eq9q9q93<31131<->-$$141888>--$>=",
"q999qqq8887599885577885899955957qq9qqq93381311<311188888884<>*>*",
"qqqqqq988878775799979q8q979315559q9q99q313331--1448ww848484-:=:=",
"909qeq989879e73587537778999333159q99eqq81<<131<3841ww884481>==#+",
"9990eeq99958e713777538q8995573339q9qqqq7131138884449w88888,>===+",
"8qeqqeq99957778787577qqqq88573133999qqq8313-35884->$$,111,>=$#:*",
"0qeeqq98985555855578578q8898753898589q95<31-511<>-$.+>->,1:*#*>$",
"q09qqq08226376666799979w77777758qe835697><3333221---584148=#Oo#-",
"q090qe082366076790767769753555559e9853551171:=224>->8842881>-#*;",
"q08qeq082762567097961555311<35339955631123332=,,1>-15844551>;%=$",
"088q9q932377670775635555111<3535577333333333112,-->188844581,,;;",
"9999q995200w079795357557235565258579756753<12>;;-$-,1588679992>*",
"8q8344580000099999987755666665557558759995<-;;+*#$$-><4529448,;*",
"99q88538w00099253533577565552249787559q9972=;@++$$$-$=-->42>,;;#",
"9q98988900775225511557570663259059q99779563>*++++$==$$$>22,*=%*#",
"qeq59w90e0065552<<853555q55552907eqqq977262,+++++;+;++,@=;,**#++",
"9qq80q9e000099w9<3855999051795658qqqq975262*++++++;,2,,,>>;*++**",
"999q997q90000570559890977113566697990975262+++++++@@,;,+;,>*@*@+",
"9899eq7790660752113879551><<650057777075262,;+++++++22,;;;;***@+",
"99999qq529567055355897551<>1960555357955262;,++;++;222;2,,;;*+@*",
"8q77q976676590075899713351<8063656557055562;;+++@@+,25,@,,,;;*@*",
"5875577975970077885953335516965555559957662,;+;+;@@,@9,,;,,,,@;;",
"5555779525700767759813133552556255156777765,,,+,;;,@,,,,,2,,,;;@",
"6565666,26666666560022622222666554560066232,=*;;;>>*><::,32>2>;*",
"66226662262256669062266966526222515679662222;*;;*@=**,;:222>;;;*",
"655556554666664666222666222222225660900622;22;;>*+@;#,,;>2=>;;;;",
"6665622226464466522526092,,+,2222476767632;2,;;;=++*%:::,,;,;,;;",
"66656555662244642222666622,,,2222299664662*,;*@;;+@=@;::,2,2,,,;",
"5222226526224562252,222622,22222222447442>;,;>*;>;*;*;;;,,+@**;;",
"26222566266246522652,,222,,22;,22,222122,;>>;;=;,;*;*>,:@@@;@,;;",
"26222222222226569552,22,222,,,++>>2222,22;>,;**>>@@==,,,;;@@,@@;",
"56622222245666656606022622,;,,,22252222,,;,2;*;2,@@;;>;;@;;;++++",
"52662222,256566666555555562,256222522,2,;,,,>@=2,=;;@@>*@;@@++++",
"52622,,,2244666665522255562252662,22,22;,,;,;**>2,;>@>2;,>@@@+++",
",2222222,266246522222,2222,22222,*22222,2>*;*+;>,,,,*=>;,,;>,@++",
"22222222,2222266652222,2,,,2>222,25222,2,;;;++;;;>>;**;;;2,@@+@+",
"225,,22,,2,2222,22262222,22,,>2222,22,,,,;*;@***@;=;;;;@+@;;;++;",
"2,2222,22,242,2,55222,22,,,2>,222,2,222,*;*;;*@*@@=>>;>*;++2;++;",
"52225222,222,2222666622,,;,,2222,,,222,,;*;;;;*+@@**;@;@*+++;+++",
"5266522,,22,2222458654,,,>,,22221,,144>=;$$;*@+@@+=;===%%#O#>%Xo",
"22652222,,,,,;,2556665222222>222,11441=*=;=;$%$**+*=%==*+#+*2=@=",
"62262,2,,,;;;>,2187995122242>>224>194,=$$**;%$*%@X@*%=%%O+#;>*@:",
"2,262,,,;,,,;,,14888761222222>221>,11;*$%=%*$%%@@++*%==%###%*@@=",
"52222,,,;*;;;;>,2144453<241,1121,>**>*$$$*$%%#$$*+o+++###%*##@#;",
"2222,,,;;2;;*;*,,,-><12<22,,1,22,>,41=*$@*$%$%**@Xo++#=##*##+o#*",
"222,,,;,>,;>**;*;;;;$-<>,21<2,>1;#,4,=**$*@#*#==%++%++@###*+OX.O",
",,2,+,,+;;>>**;;$;,-$=>->,,>11,>*#*4>*$@@%+#*$$@@+o%oX@+OO*OO*Xo",
"<><<>>><;>*;;*;;><1>->-$&<<=>>>:;*=<,==%#@@$**$O+.X=X+#+oo+oO#OO",
"3<3<<<-->>2*>>=2>>1--1--&-:=>---#*=14,>$O$**=*=O#o+$@@;$#OOOoo#o",
"353311>>>,,;,>,2<><31<>-==:==--=##,6<<>=@$O@*=>$-##-$$>-#o+XOOoo",
"5533111<>>,22,>251<3113<-$=:-:><;=,73>>-$#X+*#@#;O#;##-=Oo*O+o++",
"33<131<<=:==,3>,151<><11>===>=<>$$-35<>-+@@@$#O+*##;#O-#X.@OO++X",
"<<>11<<<=:-&,3<1373<<11<::<=$=<>=-=3>>>-O+O@#+OO*o#-#O=O.X+++o+O",
"><>-<1>1-&<11333553<151<<><>$-<<>:-<<:>>O+X++OO+#.o# o#+..OXOOOX",
"1<-><2><>&>33313533<<3<><>--=><,--=,<->-##++#@OX+.O# .$#. +++O+."
};
